<svg width="124" height="80" viewBox="0 0 124 80" fill="none" xmlns="http://www.w3.org/2000/svg">
<path d="M13.536 47.408V51.752C12.048 52.776 10.2 53.288 7.992 53.288C5.784 53.288 4.056 52.6 2.808 51.224C1.576 49.832 0.96 47.776 0.96 45.056C0.96 43.856 1.112 42.776 1.416 41.816C1.736 40.856 2.144 40.064 2.64 39.44C3.152 38.816 3.744 38.296 4.416 37.88C5.696 37.128 7.144 36.752 8.76 36.752C10.392 36.752 11.912 37.08 13.32 37.736V41.816L10.872 41.984V40.112C10.872 39.872 10.84 39.696 10.776 39.584C10.6 39.28 9.872 39.128 8.592 39.128C5.504 39.128 3.96 41.04 3.96 44.864C3.96 48.896 5.352 50.912 8.136 50.912C9.24 50.912 10.088 50.72 10.68 50.336V46.76H10.656L8.808 46.688V44.648H14.784V46.568L14.232 46.616C13.976 46.648 13.792 46.72 13.68 46.832C13.584 46.928 13.536 47.12 13.536 47.408ZM28.4183 51.104V53H24.5303V51.44C23.6503 52.688 22.3543 53.312 20.6423 53.312C18.1623 53.312 16.9223 51.928 16.9223 49.16V43.616C16.9223 43.184 16.7223 42.96 16.3223 42.944L15.5543 42.896V40.928H19.7783V48.536C19.7783 49.384 19.8983 50.024 20.1383 50.456C20.3783 50.888 20.8743 51.104 21.6263 51.104C22.3783 51.104 22.9783 50.872 23.4263 50.408C23.8903 49.944 24.1223 49.384 24.1223 48.728V43.664C24.1223 43.408 24.0743 43.232 23.9783 43.136C23.8983 43.024 23.7463 42.96 23.5223 42.944L22.7543 42.896V40.928H26.9783V50.336C26.9783 50.592 27.0183 50.768 27.0983 50.864C27.1783 50.944 27.3383 51 27.5782 51.032L28.4183 51.104ZM34.2219 40.928V51.008L35.5899 51.08V53H29.8779V51.176L30.6699 51.104C31.1339 51.056 31.3659 50.8 31.3659 50.336V43.664C31.3659 43.392 31.3179 43.208 31.2219 43.112C31.1419 43.016 30.9899 42.968 30.7659 42.968L29.9259 42.92V40.928H34.2219ZM31.1979 38.864C30.8619 38.528 30.6939 38.104 30.6939 37.592C30.6939 37.08 30.8619 36.656 31.1979 36.32C31.5339 35.968 31.9739 35.792 32.5179 35.792C33.0619 35.792 33.5019 35.968 33.8379 36.32C34.1899 36.656 34.3659 37.08 34.3659 37.592C34.3659 38.104 34.1899 38.528 33.8379 38.864C33.5019 39.184 33.0619 39.344 32.5179 39.344C31.9739 39.344 31.5339 39.184 31.1979 38.864ZM39.6435 38.384H41.2035V40.928H44.3955L44.1555 42.944H41.2035V49.256C41.2035 49.96 41.3315 50.456 41.5875 50.744C41.8435 51.016 42.2355 51.152 42.7635 51.152C43.3075 51.152 43.8515 50.984 44.3955 50.648L45.1155 52.496C44.3155 53.056 43.2995 53.336 42.0675 53.336C41.3475 53.336 40.7395 53.24 40.2435 53.048C39.7475 52.872 39.3795 52.672 39.1395 52.448C38.8995 52.224 38.7155 51.896 38.5875 51.464C38.4595 51.032 38.3875 50.696 38.3715 50.456C38.3555 50.2 38.3475 49.832 38.3475 49.352V42.944H36.6435L36.8835 41.192C37.6355 41.128 38.2035 40.864 38.5875 40.4C38.9715 39.92 39.3235 39.248 39.6435 38.384ZM56.8024 41.408V50.336C56.8024 50.592 56.8424 50.768 56.9224 50.864C57.0184 50.96 57.1784 51.016 57.4024 51.032L58.1704 51.08V53H54.3544V51.608L54.2824 51.584C53.4824 52.736 52.3864 53.312 50.9944 53.312C49.3624 53.312 48.1544 52.792 47.3704 51.752C46.5864 50.712 46.1944 49.288 46.1944 47.48C46.1944 45.304 46.7224 43.608 47.7784 42.392C48.8344 41.176 50.4184 40.568 52.5304 40.568C53.8904 40.568 55.3144 40.848 56.8024 41.408ZM54.0184 49.184V42.968C53.5704 42.76 52.9544 42.656 52.1704 42.656C51.0984 42.656 50.3224 43.088 49.8424 43.952C49.3624 44.816 49.1224 45.96 49.1224 47.384C49.1224 49.976 49.9544 51.272 51.6184 51.272C52.3224 51.272 52.8984 51.064 53.3464 50.648C53.7944 50.216 54.0184 49.728 54.0184 49.184ZM61.1316 50.312V43.664C61.1316 43.408 61.0836 43.232 60.9876 43.136C60.9076 43.024 60.7556 42.96 60.5316 42.944L59.5236 42.872V40.928H63.5796V42.728C63.8676 42.104 64.3156 41.592 64.9236 41.192C65.5316 40.776 66.2276 40.568 67.0116 40.568C67.8116 40.568 68.5716 40.744 69.2916 41.096V44.672L67.0596 44.84V43.736C67.0596 43.416 66.9796 43.216 66.8196 43.136C66.6436 43.056 66.4276 43.016 66.1716 43.016C65.5316 43.016 65.0036 43.248 64.5876 43.712C64.1876 44.16 63.9876 44.736 63.9876 45.44V51.008L66.0756 51.104V53H59.6436V51.176L60.4356 51.104C60.6756 51.072 60.8516 51.008 60.9636 50.912C61.0756 50.8 61.1316 50.6 61.1316 50.312Z" fill="black"/>
<path d="M22.784 70.84C24.704 70.84 25.664 70.072 25.664 68.536C25.664 67.736 25.24 67.144 24.392 66.76C23.944 66.536 23.36 66.328 22.64 66.136C21.936 65.944 21.344 65.752 20.864 65.56C20.4 65.352 19.928 65.072 19.448 64.72C18.504 64.016 18.032 62.936 18.032 61.48C18.032 60.008 18.536 58.856 19.544 58.024C20.568 57.176 21.896 56.752 23.528 56.752C25.176 56.752 26.704 57.08 28.112 57.736V61.336L25.664 61.504V60.112C25.664 59.872 25.632 59.696 25.568 59.584C25.392 59.28 24.824 59.128 23.864 59.128C22.92 59.128 22.216 59.296 21.752 59.632C21.304 59.968 21.08 60.488 21.08 61.192C21.08 61.704 21.272 62.152 21.656 62.536C21.912 62.792 22.288 63.008 22.784 63.184C23.296 63.344 23.832 63.512 24.392 63.688C24.968 63.864 25.472 64.056 25.904 64.264C26.352 64.472 26.816 64.76 27.296 65.128C28.272 65.848 28.76 66.96 28.76 68.464C28.76 69.968 28.216 71.152 27.128 72.016C26.056 72.88 24.632 73.312 22.856 73.312C21.096 73.312 19.512 72.984 18.104 72.328V68.536L20.552 68.368V69.832C20.552 70.072 20.584 70.248 20.648 70.36C20.712 70.472 20.904 70.584 21.224 70.696C21.56 70.792 22.08 70.84 22.784 70.84ZM35.8511 71.248C37.5951 71.248 38.4671 69.84 38.4671 67.024C38.4671 65.6 38.2671 64.52 37.8671 63.784C37.4831 63.048 36.8271 62.68 35.8991 62.68C34.9871 62.68 34.3151 63.032 33.8831 63.736C33.4511 64.44 33.2351 65.4 33.2351 66.616C33.2351 68.872 33.6511 70.288 34.4831 70.864C34.8511 71.12 35.3071 71.248 35.8511 71.248ZM30.3311 66.952C30.3311 65.768 30.5071 64.744 30.8591 63.88C31.2111 63 31.6831 62.328 32.2751 61.864C33.4111 61 34.6671 60.568 36.0431 60.568C37.0031 60.568 37.8111 60.728 38.4671 61.048C39.1391 61.352 39.6591 61.712 40.0271 62.128C40.4111 62.528 40.7311 63.12 40.9871 63.904C41.2591 64.672 41.3951 65.584 41.3951 66.64C41.3951 68.848 40.8591 70.52 39.7871 71.656C38.7151 72.792 37.3391 73.36 35.6591 73.36C33.9951 73.36 32.6911 72.824 31.7471 71.752C30.8031 70.664 30.3311 69.064 30.3311 66.952ZM42.8668 62.848V60.928H46.9228V62.488C47.3388 61.896 47.8908 61.432 48.5788 61.096C49.2668 60.744 50.0108 60.568 50.8108 60.568C52.0268 60.568 52.9628 60.92 53.6188 61.624C54.2908 62.312 54.6268 63.352 54.6268 64.744V71.008L55.9948 71.08V73H50.2828V71.176L51.0748 71.104C51.3148 71.072 51.4908 71.008 51.6028 70.912C51.7148 70.8 51.7708 70.6 51.7708 70.312V65.368C51.7708 64.488 51.6348 63.84 51.3628 63.424C51.0908 62.992 50.5708 62.776 49.8028 62.776C49.0508 62.776 48.4508 63.016 48.0028 63.496C47.5548 63.976 47.3308 64.544 47.3308 65.2V71.008L48.6988 71.08V73H42.9868V71.176L43.7788 71.104C44.0188 71.072 44.1948 71.008 44.3068 70.912C44.4188 70.8 44.4748 70.6 44.4748 70.312V63.664C44.4748 63.184 44.2748 62.936 43.8748 62.92L42.8668 62.848ZM68.0814 72.976C67.9374 74.752 67.4254 76.056 66.5454 76.888C65.6654 77.72 64.2894 78.136 62.4174 78.136C60.5454 78.136 59.0814 77.872 58.0254 77.344V74.008L60.3054 73.816V74.968C60.3054 75.4 60.5054 75.688 60.9054 75.832C61.3054 75.992 61.8574 76.072 62.5614 76.072C63.5854 76.072 64.3054 75.76 64.7214 75.136C65.1374 74.528 65.3454 73.664 65.3454 72.544V71.224C64.5774 72.12 63.5134 72.568 62.1534 72.568C61.3214 72.568 60.5854 72.408 59.9454 72.088C59.3214 71.768 58.8334 71.336 58.4814 70.792C57.7934 69.704 57.4494 68.424 57.4494 66.952C57.4494 64.856 58.0174 63.272 59.1534 62.2C60.2894 61.112 61.8014 60.568 63.6894 60.568C65.2574 60.568 66.7374 60.864 68.1294 61.456V70.36C68.1294 71.72 68.1134 72.592 68.0814 72.976ZM65.3454 68.104V62.944C64.7854 62.752 64.1454 62.656 63.4254 62.656C62.4494 62.656 61.6974 63.016 61.1694 63.736C60.6574 64.456 60.4014 65.432 60.4014 66.664C60.4014 69.192 61.2334 70.456 62.8974 70.456C63.5854 70.456 64.1614 70.248 64.6254 69.832C65.1054 69.4 65.3454 68.824 65.3454 68.104ZM70.6001 57.04H77.3681C80.8241 57.04 82.5521 58.376 82.5521 61.048C82.5521 62.52 81.8161 63.64 80.3441 64.408C81.2881 64.648 82.0241 65.088 82.5521 65.728C83.0961 66.368 83.3681 67.2 83.3681 68.224C83.3681 69.776 82.8401 70.96 81.7841 71.776C80.7441 72.592 79.2241 73 77.2241 73H70.4801V71.056L71.2721 70.984C71.7361 70.936 71.9681 70.712 71.9681 70.312V59.152L70.6001 59.08V57.04ZM74.8961 65.728V70.744H77.1521C79.2321 70.744 80.2721 69.896 80.2721 68.2C80.2721 67.4 80.0081 66.792 79.4801 66.376C78.9681 65.944 78.2321 65.728 77.2721 65.728H74.8961ZM74.8961 59.248V63.592H76.6721C77.6641 63.592 78.3921 63.392 78.8561 62.992C79.3361 62.576 79.5761 62 79.5761 61.264C79.5761 60.528 79.3361 60.008 78.8561 59.704C78.3921 59.4 77.7201 59.248 76.8401 59.248H74.8961ZM90.4136 71.248C92.1576 71.248 93.0296 69.84 93.0296 67.024C93.0296 65.6 92.8296 64.52 92.4296 63.784C92.0456 63.048 91.3896 62.68 90.4616 62.68C89.5496 62.68 88.8776 63.032 88.4456 63.736C88.0136 64.44 87.7976 65.4 87.7976 66.616C87.7976 68.872 88.2136 70.288 89.0456 70.864C89.4136 71.12 89.8696 71.248 90.4136 71.248ZM84.8936 66.952C84.8936 65.768 85.0696 64.744 85.4216 63.88C85.7736 63 86.2456 62.328 86.8376 61.864C87.9736 61 89.2296 60.568 90.6056 60.568C91.5656 60.568 92.3736 60.728 93.0296 61.048C93.7016 61.352 94.2216 61.712 94.5896 62.128C94.9736 62.528 95.2936 63.12 95.5496 63.904C95.8216 64.672 95.9576 65.584 95.9576 66.64C95.9576 68.848 95.4216 70.52 94.3496 71.656C93.2776 72.792 91.9016 73.36 90.2216 73.36C88.5576 73.36 87.2536 72.824 86.3096 71.752C85.3656 70.664 84.8936 69.064 84.8936 66.952ZM103.093 71.248C104.837 71.248 105.709 69.84 105.709 67.024C105.709 65.6 105.509 64.52 105.109 63.784C104.725 63.048 104.069 62.68 103.141 62.68C102.229 62.68 101.557 63.032 101.125 63.736C100.693 64.44 100.477 65.4 100.477 66.616C100.477 68.872 100.893 70.288 101.725 70.864C102.093 71.12 102.549 71.248 103.093 71.248ZM97.5732 66.952C97.5732 65.768 97.7493 64.744 98.1013 63.88C98.4533 63 98.9253 62.328 99.5173 61.864C100.653 61 101.909 60.568 103.285 60.568C104.245 60.568 105.053 60.728 105.709 61.048C106.381 61.352 106.901 61.712 107.269 62.128C107.653 62.528 107.973 63.12 108.229 63.904C108.501 64.672 108.637 65.584 108.637 66.64C108.637 68.848 108.101 70.52 107.029 71.656C105.957 72.792 104.581 73.36 102.901 73.36C101.237 73.36 99.9333 72.824 98.9893 71.752C98.0453 70.664 97.5732 69.064 97.5732 66.952ZM111.741 70.312V58.624C111.741 58.368 111.693 58.192 111.597 58.096C111.517 58 111.365 57.944 111.141 57.928L110.301 57.88V55.888H114.573V66.28C115.453 66.2 116.221 65.928 116.877 65.464C117.533 65 117.981 64.392 118.221 63.64C118.269 63.48 118.293 63.352 118.293 63.256C118.293 62.984 118.141 62.848 117.837 62.848L116.925 62.8V60.928H121.893V62.872L120.741 62.92C120.533 64.552 119.829 65.84 118.629 66.784L120.981 71.008L122.445 71.08V73H118.941L116.205 68.008C115.677 68.152 115.133 68.264 114.573 68.344V71.008H114.597L115.965 71.08V73H110.253V71.176L111.045 71.104C111.285 71.072 111.461 71.008 111.573 70.912C111.685 70.8 111.741 70.6 111.741 70.312Z" fill="black"/>
<path d="M111.638 32.1663C113.118 32.1663 114.318 30.9663 114.318 29.486C114.318 28.0062 113.118 26.8068 111.638 26.8068C110.64 26.8068 110.416 27.3596 110.373 28.168H107.81C106.904 26.3681 106.399 24.5844 106.176 22.8766H108.612C108.655 23.6859 108.88 24.2374 109.878 24.2374C111.357 24.2374 112.558 23.0377 112.558 21.5578C112.558 20.0784 111.358 18.8783 109.878 18.8783C108.88 18.8783 108.655 19.4305 108.612 20.2391H106.034C106.079 18.2776 106.446 16.4772 106.915 14.9482H109.492C109.536 15.7575 109.761 16.309 110.759 16.309C112.238 16.309 113.439 15.1093 113.439 13.6293C113.439 12.1493 112.238 10.9499 110.759 10.9499C109.761 10.9499 109.536 11.502 109.492 12.3107H107.911C108.222 11.6262 108.516 11.0668 108.746 10.6625C109.231 9.80753 109.805 8.6074 110.452 7.09522C110.673 6.58088 110.724 5.6966 110.428 5.1073C108.848 1.95729 105.682 0 102.167 0H101.798C101.584 0 101.401 0.107491 101.309 0.288925C101.169 0.562928 101.264 0.901111 101.618 1.3892C102.581 2.72286 103.012 3.96585 103.012 4.60508C103.012 6.23731 100.256 7.61484 96.993 7.61484C93.7304 7.61484 90.9743 6.23731 90.9743 4.60508C90.9743 3.96451 91.4048 2.72196 92.3687 1.3892C92.721 0.901111 92.8158 0.562928 92.6771 0.288925C92.584 0.107491 92.4021 0 92.188 0H91.8189C88.3217 0 85.164 1.94225 83.5768 5.06859C83.3091 5.59584 83.2955 6.46901 83.5466 7.05651C84.2004 8.58462 84.7797 9.79844 85.2696 10.6624C85.4985 11.066 85.7934 11.6262 86.1029 12.3106H84.5065C84.4637 11.5013 84.239 10.9498 83.2408 10.9498C81.7613 10.9498 80.5613 12.1491 80.5613 13.6292C80.5613 15.1093 81.7615 16.3089 83.2408 16.3089C84.2389 16.3089 84.4636 15.7565 84.5065 14.948H87.1001C87.5685 16.4771 87.9343 18.2775 87.981 20.239H85.3885C85.3455 19.4297 85.1208 18.8782 84.1227 18.8782C82.643 18.8782 81.4432 20.0784 81.4432 21.5577C81.4432 23.0376 82.643 24.2373 84.1227 24.2373C85.1208 24.2373 85.3455 23.6849 85.3885 22.8765H87.8392C87.6147 24.5842 87.1106 26.3681 86.2052 28.1679H83.6267C83.5838 27.3576 83.3591 26.8067 82.361 26.8067C80.8814 26.8067 79.6815 28.0061 79.6815 29.4859C79.6815 30.9661 80.8814 32.1662 82.361 32.1662C83.3591 32.1662 83.5838 31.6141 83.6267 30.8052H84.5833C84.3713 31.0942 84.1476 31.3816 83.9106 31.6698C83.6761 31.9544 83.5837 32.2917 83.65 32.6186C83.7156 32.9483 83.9333 33.2242 84.2619 33.397C88.3879 35.5724 89.5445 38.5559 89.7354 40.8414C89.3392 41.0703 89.0705 41.4925 89.0705 41.9804V42.7689C89.0705 43.4606 89.6052 44.023 90.2817 44.0788V53.9999H103.715V44.0788C104.391 44.023 104.926 43.4606 104.926 42.7689V41.9804C104.926 41.5037 104.669 41.0882 104.29 40.8559C104.477 38.5712 105.628 35.5827 109.758 33.4015C110.086 33.2274 110.303 32.9504 110.368 32.6222C110.433 32.2954 110.341 31.9581 110.106 31.674C109.869 31.3853 109.644 31.0962 109.432 30.8053H110.373C110.416 31.6142 110.64 32.1663 111.638 32.1663Z" fill="black"/>
</svg>
